<svg width="45" height="52" viewBox="0 0 45 52" fill="none" xmlns="http://www.w3.org/2000/svg"><path d="M22.024.132A32.926 32.926 0 0 0 0 8.57v16.27h.13a30.157 30.157 0 0 0 6.861 16.527 30.294 30.294 0 0 0 15.033 9.76 30.294 30.294 0 0 0 15.033-9.76 30.157 30.157 0 0 0 6.86-16.528h.131V8.57A32.926 32.926 0 0 0 22.024.133zm12.663 17.707L22.3 34.311a2.065 2.065 0 0 1-2.942.372l-6.882-5.491a2.06 2.06 0 0 1-.704-2.186 2.057 2.057 0 0 1 1.763-1.477 2.072 2.072 0 0 1 1.522.448l5.218 4.164 11.112-14.773a2.063 2.063 0 0 1 2.165-.762 2.066 2.066 0 0 1 1.532 1.706 2.053 2.053 0 0 1-.396 1.527z" fill="#E31D35"/><path d="M34.687 17.84L22.3 34.31a2.065 2.065 0 0 1-2.942.372l-6.882-5.491a2.06 2.06 0 0 1-.704-2.186 2.057 2.057 0 0 1 1.763-1.476 2.07 2.07 0 0 1 1.522.447l5.218 4.164 11.112-14.773a2.063 2.063 0 0 1 2.165-.762 2.066 2.066 0 0 1 1.532 1.706 2.053 2.053 0 0 1-.396 1.527z" fill="#fff"/></svg>