<svg width="39" height="39" viewBox="0 0 39 39" fill="none" xmlns="http://www.w3.org/2000/svg"><path fill-rule="evenodd" clip-rule="evenodd" d="M19.458 38.916c10.747 0 19.458-8.711 19.458-19.458C38.916 8.712 30.205 0 19.458 0 8.712 0 0 8.712 0 19.458c0 10.747 8.712 19.458 19.458 19.458z" fill="#E31D35"/><path fill-rule="evenodd" clip-rule="evenodd" d="M12.562 24.292c2.701 0 4.89-2.233 4.89-4.989 0-2.755-2.189-4.989-4.89-4.989-2.7 0-4.89 2.234-4.89 4.99 0 2.755 2.19 4.988 4.89 4.988z" fill="#fff"/><path fill-rule="evenodd" clip-rule="evenodd" d="M7.264 19.303c0 2.98 2.377 5.405 5.298 5.405 2.921 0 5.298-2.425 5.298-5.405 0-2.98-2.377-5.404-5.298-5.404-2.921 0-5.298 2.424-5.298 5.404zm.815 0c0-2.521 2.011-4.573 4.483-4.573 2.472 0 4.483 2.052 4.483 4.573 0 2.522-2.01 4.574-4.483 4.574-2.472 0-4.483-2.052-4.483-4.574zm17.844 4.989c2.7 0 4.89-2.233 4.89-4.989 0-2.755-2.19-4.989-4.89-4.989-2.701 0-4.89 2.234-4.89 4.99 0 2.755 2.189 4.988 4.89 4.988z" fill="#fff"/><path fill-rule="evenodd" clip-rule="evenodd" d="M20.625 19.303c0 2.98 2.377 5.405 5.298 5.405 2.921 0 5.298-2.425 5.298-5.405 0-2.98-2.377-5.404-5.298-5.404-2.921 0-5.298 2.424-5.298 5.404zm.815 0c0-2.521 2.011-4.573 4.483-4.573 2.472 0 4.483 2.052 4.483 4.573 0 2.522-2.011 4.574-4.483 4.574-2.472 0-4.483-2.052-4.483-4.574z" fill="#fff"/><path fill-rule="evenodd" clip-rule="evenodd" d="M26.217 24.708H12.73c-.22 0-.397-.22-.397-.491s.177-.492.397-.492h13.488c.22 0 .397.22.397.492 0 .27-.177.491-.397.491z" fill="#fff"/></svg>