<svg width="54" height="55" viewBox="0 0 54 55" fill="none" xmlns="http://www.w3.org/2000/svg"><path d="M48.172 22.96c0 11.715-9.497 21.212-21.211 21.212-11.715 0-21.211-9.497-21.211-21.211 0-11.715 9.496-21.211 21.21-21.211 11.715 0 21.212 9.496 21.212 21.21z" fill="#29B047" stroke="#00B434" stroke-width="1.5"/><path fill-rule="evenodd" clip-rule="evenodd" d="M37.155 29.016c-.05-.1-1.223-2.448-4.472-3.277a.672.672 0 0 0-.633.159c-1.026.918-2.442 1.904-3.054 2.002-4.1-2.108-6.386-6.155-6.473-6.922-.05-.431.89-1.947 1.97-3.179a.78.78 0 0 0 .187-.58c-.275-3.325-3.572-4.957-3.711-5.024a.685.685 0 0 0-.42-.057c-3.806.664-4.379 2.995-4.402 3.092a.789.789 0 0 0 .015.41c4.54 14.821 13.973 17.569 17.076 18.475l.583.177.221.034.298-.068c.095-.046 2.336-1.157 2.884-4.78a.776.776 0 0 0-.07-.462z" fill="#fff" filter="url(#a)"/><defs><filter id="a" x=".127" y=".127" width="53.107" height="54.199" filterUnits="userSpaceOnUse" color-interpolation-filters="sRGB"><feFlood flood-opacity="0" result="BackgroundImageFix"/><feColorMatrix in="SourceAlpha" values="0 0 0 0 0 0 0 0 0 0 0 0 0 0 0 0 0 0 127 0"/><feOffset dy="4"/><feGaussianBlur stdDeviation="8"/><feColorMatrix values="0 0 0 0 0 0 0 0 0 0 0 0 0 0 0 0 0 0 0.195964 0"/><feBlend in2="BackgroundImageFix" result="effect1_dropShadow"/><feBlend in="SourceGraphic" in2="effect1_dropShadow" result="shape"/></filter></defs></svg>