<svg width="2000" height="2000" viewBox="0 0 2000 2000" fill="none" xmlns="http://www.w3.org/2000/svg">
<mask id="mask0" mask-type="alpha" maskUnits="userSpaceOnUse" x="0" y="0" width="2000" height="2000">
<path d="M0 468.75C0 209.866 209.866 0 468.75 0H1531.25C1790.13 0 2000 209.866 2000 468.75V1531.25C2000 1790.13 1790.13 2000 1531.25 2000H468.75C209.866 2000 0 1790.13 0 1531.25V468.75Z" fill="white"/>
</mask>
<g mask="url(#mask0)">
<path fill-rule="evenodd" clip-rule="evenodd" d="M0 312.5C0 139.911 139.911 0 312.5 0H1687.5C1860.09 0 2000 139.911 2000 312.5V1687.5C2000 1860.09 1860.09 2000 1687.5 2000H312.5C139.911 2000 0 1860.09 0 1687.5V312.5Z" fill="white"/>
<g filter="url(#filter0_d)">
<path fill-rule="evenodd" clip-rule="evenodd" d="M1286.43 1522.69C1283.9 1517.56 1223.31 1396.87 1055.59 1354.23C1043.93 1351.04 1031.91 1354.31 1022.92 1362.41C969.977 1409.63 896.844 1460.29 865.289 1465.35C653.681 1356.95 535.626 1148.96 531.17 1109.51C528.572 1087.33 577.056 1009.44 632.817 946.101C639.871 938.085 643.435 927.195 642.47 916.296C628.289 745.343 458.11 661.462 450.908 658.037C444.076 654.768 436.505 653.757 429.226 655.081C232.77 689.242 203.219 809.07 202.029 814.054C200.395 821.054 200.693 828.296 202.772 835.062C437.101 1597.01 924.094 1738.24 1084.25 1784.85L1114.32 1793.95L1125.76 1795.66L1141.13 1792.16C1146.02 1789.83 1261.71 1732.72 1289.99 1546.43C1291.33 1538.41 1289.99 1530.01 1286.43 1522.69Z" fill="#3B424F"/>
</g>
<path fill-rule="evenodd" clip-rule="evenodd" d="M1651.52 1127.6C2154.63 1127.6 2562.49 719.74 2562.49 216.62C2562.49 -286.501 2154.63 -694.361 1651.52 -694.361C1148.39 -694.361 740.532 -286.501 740.532 216.62C740.532 719.74 1148.39 1127.6 1651.52 1127.6Z" fill="#EC121F"/>
<path fill-rule="evenodd" clip-rule="evenodd" d="M1302.8 319.657V365.322H1328.62C1343.7 365.322 1352.54 356.685 1352.54 342.489C1352.54 328.591 1343.2 319.657 1328.31 319.657H1302.8ZM1302.8 387.063V439.478H1272.82V296.229H1331.49C1364.45 296.229 1383.31 313.602 1383.31 341.894C1383.31 360.259 1373.78 376.143 1357.3 382.595L1387.48 439.478H1353.53L1326.83 387.063H1302.8ZM1509.16 414.66V439.478H1414.27V296.229H1509.16V320.948H1444.24V355.494H1505.49V378.525H1444.24V414.66H1509.16ZM1605.44 441.959C1563.74 441.959 1537.63 414.064 1537.63 367.804C1537.63 321.642 1563.95 293.747 1605.44 293.747C1639.88 293.747 1666.09 315.587 1668.37 347.652H1639.2C1636.41 330.081 1622.91 318.565 1605.44 318.565C1582.8 318.565 1568.21 337.526 1568.21 367.705C1568.21 398.28 1582.61 417.141 1605.54 417.141C1623.3 417.141 1636.12 406.718 1639.29 389.743H1668.48C1665.1 421.709 1640.58 441.959 1605.44 441.959Z" fill="white"/>
<path fill-rule="evenodd" clip-rule="evenodd" d="M1614.96 564.591C1555.54 564.591 1507.2 613.302 1507.2 673.171C1507.2 711.876 1527.45 745.82 1557.8 765.047H1390.27C1420.62 745.82 1440.88 711.876 1440.88 673.171C1440.88 613.302 1392.53 564.591 1333.11 564.591C1273.69 564.591 1225.34 613.302 1225.34 673.171C1225.34 733.041 1273.69 781.749 1333.11 781.749H1614.96C1674.38 781.749 1722.73 733.041 1722.73 673.171C1722.73 613.302 1674.38 564.591 1614.96 564.591ZM1245.79 676.564C1245.79 626.051 1285.52 584.949 1334.36 584.949C1383.2 584.949 1422.94 626.051 1422.94 676.564C1422.94 727.077 1383.2 768.179 1334.36 768.179C1285.52 768.179 1245.79 727.077 1245.79 676.564ZM1525.13 676.564C1525.13 727.077 1564.87 768.179 1613.71 768.179C1662.55 768.179 1702.29 727.077 1702.29 676.564C1702.29 626.051 1662.55 584.949 1613.71 584.949C1564.87 584.949 1525.13 626.051 1525.13 676.564Z" fill="white"/>
<path d="M1557.8 765.047V776.766H1598.18L1564.07 755.148L1557.8 765.047ZM1390.27 765.047L1384 755.148L1349.89 776.766H1390.27V765.047ZM1518.91 673.171C1518.91 619.69 1562.09 576.309 1614.96 576.309V552.872C1548.98 552.872 1495.48 606.912 1495.48 673.171H1518.91ZM1564.07 755.148C1536.97 737.974 1518.91 707.685 1518.91 673.171H1495.48C1495.48 716.066 1517.94 753.665 1551.52 774.945L1564.07 755.148ZM1390.27 776.766H1557.8V753.328H1390.27V776.766ZM1429.16 673.171C1429.16 707.685 1411.1 737.974 1384 755.148L1396.55 774.945C1430.13 753.665 1452.59 716.066 1452.59 673.171H1429.16ZM1333.11 576.309C1385.98 576.309 1429.16 619.69 1429.16 673.171H1452.59C1452.59 606.912 1399.09 552.872 1333.11 552.872V576.309ZM1237.06 673.171C1237.06 619.69 1280.24 576.309 1333.11 576.309V552.872C1267.13 552.872 1213.62 606.912 1213.62 673.171H1237.06ZM1333.11 770.032C1280.24 770.032 1237.06 726.652 1237.06 673.171H1213.62C1213.62 739.429 1267.13 793.468 1333.11 793.468V770.032ZM1614.96 770.032H1333.11V793.468H1614.96V770.032ZM1711.01 673.171C1711.01 726.652 1667.83 770.032 1614.96 770.032V793.468C1680.94 793.468 1734.45 739.429 1734.45 673.171H1711.01ZM1614.96 576.309C1667.83 576.309 1711.01 619.69 1711.01 673.171H1734.45C1734.45 606.912 1680.94 552.872 1614.96 552.872V576.309ZM1334.36 573.23C1278.68 573.23 1234.07 619.955 1234.07 676.564H1257.51C1257.51 632.147 1292.37 596.668 1334.36 596.668V573.23ZM1434.66 676.564C1434.66 619.955 1390.04 573.23 1334.36 573.23V596.668C1376.35 596.668 1411.22 632.147 1411.22 676.564H1434.66ZM1334.36 779.898C1390.04 779.898 1434.66 733.173 1434.66 676.564H1411.22C1411.22 720.98 1376.35 756.46 1334.36 756.46V779.898ZM1234.07 676.564C1234.07 733.173 1278.68 779.898 1334.36 779.898V756.46C1292.37 756.46 1257.51 720.98 1257.51 676.564H1234.07ZM1613.71 756.46C1571.72 756.46 1536.85 720.98 1536.85 676.564H1513.41C1513.41 733.173 1558.03 779.898 1613.71 779.898V756.46ZM1690.57 676.564C1690.57 720.98 1655.7 756.46 1613.71 756.46V779.898C1669.39 779.898 1714.01 733.173 1714.01 676.564H1690.57ZM1613.71 596.668C1655.7 596.668 1690.57 632.147 1690.57 676.564H1714.01C1714.01 619.955 1669.39 573.23 1613.71 573.23V596.668ZM1536.85 676.564C1536.85 632.147 1571.72 596.668 1613.71 596.668V573.23C1558.03 573.23 1513.41 619.955 1513.41 676.564H1536.85Z" fill="white"/>
</g>
<defs>
<filter id="filter0_d" x="184.981" y="642.516" width="1121.52" height="1173.15" filterUnits="userSpaceOnUse" color-interpolation-filters="sRGB">
<feFlood flood-opacity="0" result="BackgroundImageFix"/>
<feColorMatrix in="SourceAlpha" type="matrix" values="0 0 0 0 0 0 0 0 0 0 0 0 0 0 0 0 0 0 127 0"/>
<feOffset dy="4"/>
<feGaussianBlur stdDeviation="8"/>
<feColorMatrix type="matrix" values="0 0 0 0 0 0 0 0 0 0 0 0 0 0 0 0 0 0 0.195964 0"/>
<feBlend mode="normal" in2="BackgroundImageFix" result="effect1_dropShadow"/>
<feBlend mode="normal" in="SourceGraphic" in2="effect1_dropShadow" result="shape"/>
</filter>
</defs>
</svg>
