<svg width="20" height="20" viewBox="0 0 20 20" fill="none" xmlns="http://www.w3.org/2000/svg"><circle cx="10" cy="10" r="10" fill="#fff"/><path fill-rule="evenodd" clip-rule="evenodd" d="M8.432 11.755c.068.068.18.068.248 0l5.535-5.535a.871.871 0 1 1 1.232 1.232L8.68 14.219a.175.175 0 0 1-.248 0L4.553 10.34a.871.871 0 0 1 1.232-1.23l2.647 2.646z" fill="#02D004"/><path fill-rule="evenodd" clip-rule="evenodd" d="M8.587 11.662l5.535-5.535a1.003 1.003 0 0 1 1.418 1.418l-6.767 6.767a.307.307 0 0 1-.434 0L4.46 10.433a1.003 1.003 0 1 1 1.418-1.418l2.647 2.647a.044.044 0 0 0 .062 0zm.093.093a.175.175 0 0 1-.248 0L5.785 9.109a.871.871 0 0 0-1.232 1.231l3.879 3.879c.068.068.18.068.248 0l6.767-6.767a.871.871 0 1 0-1.232-1.232L8.68 11.755z" fill="#02D004"/></svg>